<svg width="62" height="62" viewBox="0 0 62 62" fill="none" xmlns="http://www.w3.org/2000/svg">
<path d="M17.084 14.8804H44.417" stroke="#DE3931" stroke-width="2.5" stroke-linecap="round"/>
<path d="M20.5449 20.8369H40.9539" stroke="#DE3931" stroke-width="2.5" stroke-linecap="round"/>
<path fill-rule="evenodd" clip-rule="evenodd" d="M30.7491 26.6011C24.5131 26.6011 19.4561 31.6571 19.4561 37.8931C19.4561 44.1311 24.5131 49.1861 30.7491 49.1861C36.9861 49.1861 42.0421 44.1311 42.0421 37.8931C42.0421 31.6571 36.9861 26.6011 30.7491 26.6011ZM30.7491 29.1011C35.5981 29.1011 39.5421 33.0451 39.5421 37.8931C39.5421 42.7421 35.5981 46.6861 30.7491 46.6861C25.9001 46.6861 21.9561 42.7421 21.9561 37.8931C21.9561 33.0451 25.9001 29.1011 30.7491 29.1011Z" fill="#DE3931"/>
<path fill-rule="evenodd" clip-rule="evenodd" d="M30.7494 31.9189C27.4484 31.9189 24.7734 34.5929 24.7734 37.8939C24.7734 41.1929 27.4484 43.8679 30.7494 43.8679C34.0504 43.8679 36.7254 41.1929 36.7254 37.8939C36.7254 34.5929 34.0504 31.9189 30.7494 31.9189ZM30.7494 34.4189C32.6664 34.4189 34.2254 35.9779 34.2254 37.8939C34.2254 39.8099 32.6664 41.3679 30.7494 41.3679C28.8324 41.3679 27.2734 39.8099 27.2734 37.8939C27.2734 35.9779 28.8324 34.4189 30.7494 34.4189Z" fill="#DE3931"/>
<path d="M32.6367 48.1601L38.2407 60.0521L39.7727 53.7971L45.6267 56.4041L39.4167 43.4431" stroke="#DE3931" stroke-width="2.5" stroke-linejoin="round"/>
<path d="M28.863 48.1601L23.259 60.0521L21.727 53.7971L15.873 56.4041L20.256 47.3921" stroke="#DE3931" stroke-width="2.5" stroke-linejoin="round"/>
<path d="M16.514 44.5835H1.25V1.25049H60.25V44.5835H45.29" stroke="#DE3931" stroke-width="2.5"/>
<path d="M6.64453 13.7217V6.43066H13.9335" stroke="#DE3931" stroke-width="2.5"/>
<path d="M47.5645 6.43066H54.8555V13.7217" stroke="#DE3931" stroke-width="2.5"/>
<path d="M54.8555 32.1123V39.4033H47.5645" stroke="#DE3931" stroke-width="2.5"/>
<path d="M13.9335 39.4028H6.64453V32.1118" stroke="#DE3931" stroke-width="2.5"/>
</svg>
