<svg width="103" height="31" viewBox="0 0 103 31" fill="none" xmlns="http://www.w3.org/2000/svg">
<rect x="54.2607" width="47.4783" height="30.7478" rx="4.5" fill="black"/>
<mask id="mask0" mask-type="alpha" maskUnits="userSpaceOnUse" x="63" y="24" width="31" height="5">
<path fill-rule="evenodd" clip-rule="evenodd" d="M63.625 28.0777H93.5086V24.156H63.625V28.0777Z" fill="white"/>
</mask>
<g mask="url(#mask0)">
<path fill-rule="evenodd" clip-rule="evenodd" d="M90.1765 26.586C90.1765 26.0786 90.4885 25.6726 90.9925 25.6726C91.4743 25.6726 91.7918 26.0617 91.7918 26.586C91.7918 27.1103 91.4743 27.4994 90.9925 27.4994C90.4885 27.4994 90.1765 27.0934 90.1765 26.586ZM92.2955 26.586V24.156H91.7699V25.5656C91.5892 25.3231 91.2936 25.1708 90.9211 25.1708C90.1874 25.1708 89.6288 25.7629 89.6288 26.586C89.6288 27.4093 90.1874 28.0012 90.9211 28.0012C91.2936 28.0012 91.5892 27.8488 91.7699 27.6064V27.9336H92.2955V26.586ZM84.8925 26.586C84.8925 26.0786 85.2045 25.6726 85.7082 25.6726C86.1901 25.6726 86.5078 26.0617 86.5078 26.586C86.5078 27.1103 86.1901 27.4994 85.7082 27.4994C85.2045 27.4994 84.8925 27.0934 84.8925 26.586ZM87.0115 26.586V25.2384H86.4859V25.5656C86.3052 25.3231 86.0096 25.1708 85.6371 25.1708C84.9034 25.1708 84.3448 25.7629 84.3448 26.586C84.3448 27.4093 84.9034 28.0012 85.6371 28.0012C86.0096 28.0012 86.3052 27.8488 86.4859 27.6064V27.9336H87.0115V26.586ZM93.1996 27.7314V27.7979H93.2589C93.2723 27.7979 93.2832 27.7951 93.2914 27.7894C93.2994 27.7841 93.3035 27.7756 93.3035 27.7644C93.3035 27.7534 93.2994 27.7452 93.2914 27.7396C93.2832 27.7342 93.2723 27.7314 93.2589 27.7314H93.1996ZM93.2594 27.685C93.2903 27.685 93.3144 27.692 93.3311 27.7064C93.3478 27.7204 93.3562 27.7399 93.3562 27.7644C93.3562 27.7849 93.3494 27.8018 93.3363 27.8151C93.3229 27.8283 93.3037 27.8367 93.2791 27.8396L93.3582 27.9333H93.2964L93.2231 27.8404H93.1996V27.9333H93.1481V27.685H93.2594ZM93.2441 28.0186C93.2723 28.0186 93.2983 28.0133 93.3226 28.0023C93.3467 27.9913 93.368 27.9764 93.3861 27.9578C93.4044 27.9389 93.4186 27.917 93.4293 27.8914C93.4397 27.866 93.4448 27.839 93.4448 27.8103C93.4448 27.7813 93.4397 27.7542 93.4293 27.7289C93.4186 27.7036 93.4044 27.6816 93.3861 27.6627C93.368 27.6439 93.3467 27.6292 93.3226 27.6185C93.2983 27.6075 93.2723 27.6022 93.2441 27.6022C93.2157 27.6022 93.1889 27.6075 93.1643 27.6185C93.1394 27.6292 93.1178 27.6439 93.0995 27.6627C93.0814 27.6816 93.0669 27.7036 93.0565 27.7289C93.0461 27.7542 93.041 27.7813 93.041 27.8103C93.041 27.839 93.0461 27.866 93.0565 27.8914C93.0669 27.917 93.0814 27.9389 93.0995 27.9578C93.1178 27.9764 93.1394 27.9913 93.1643 28.0023C93.1889 28.0133 93.2157 28.0186 93.2441 28.0186ZM93.2441 27.5428C93.2808 27.5428 93.315 27.5498 93.347 27.5636C93.3789 27.5777 93.4071 27.5968 93.4312 27.621C93.455 27.6453 93.4738 27.6737 93.4878 27.7064C93.5015 27.7387 93.5086 27.7734 93.5086 27.8103C93.5086 27.8469 93.5015 27.8815 93.4878 27.9139C93.4738 27.9463 93.455 27.9744 93.4312 27.9986C93.4071 28.0229 93.3789 28.0423 93.347 28.0564C93.315 28.0707 93.2808 28.0778 93.2441 28.0778C93.2067 28.0778 93.1719 28.0707 93.1394 28.0564C93.1069 28.0423 93.0787 28.0229 93.0552 27.9986C93.0311 27.9744 93.0125 27.9463 92.9986 27.9139C92.9849 27.8815 92.9781 27.8469 92.9781 27.8103C92.9781 27.7734 92.9849 27.7387 92.9986 27.7064C93.0125 27.6737 93.0311 27.6453 93.0552 27.621C93.0787 27.5968 93.1069 27.5777 93.1394 27.5636C93.1719 27.5498 93.2067 27.5428 93.2441 27.5428ZM89.0266 25.1708C88.6982 25.1708 88.4625 25.3288 88.3148 25.5656V25.2384H87.7944V27.9336H88.3203V26.4168C88.3203 25.9713 88.5284 25.6838 88.9006 25.6838C89.0157 25.6838 89.136 25.7007 89.2566 25.7514L89.4319 25.244C89.3058 25.1933 89.1415 25.1708 89.0266 25.1708ZM68.8212 26.586C68.8212 26.0786 69.1335 25.6726 69.6372 25.6726C70.119 25.6726 70.4368 26.0617 70.4368 26.586C70.4368 27.1103 70.119 27.4994 69.6372 27.4994C69.1335 27.4994 68.8212 27.0934 68.8212 26.586ZM70.9405 26.586V25.2384H70.4146V25.5656C70.2342 25.3231 69.9383 25.1708 69.5661 25.1708C68.8324 25.1708 68.2738 25.7629 68.2738 26.586C68.2738 27.4093 68.8324 28.0012 69.5661 28.0012C69.9383 28.0012 70.2342 27.8488 70.4146 27.6064V27.9336H70.9405V26.586ZM78.026 25.6726C78.4146 25.6726 78.6777 25.9319 78.716 26.3548H77.303C77.3525 25.96 77.6044 25.6726 78.026 25.6726ZM78.037 25.1708C77.2702 25.1708 76.7446 25.7401 76.7446 26.5804C76.7446 27.4375 77.2923 28.0012 78.0752 28.0012C78.4696 28.0012 78.8308 27.8998 79.1486 27.6233L78.8691 27.2232C78.65 27.4037 78.3708 27.505 78.1081 27.505C77.7411 27.505 77.3689 27.2908 77.303 26.8059H79.2579C79.2634 26.7327 79.2689 26.6592 79.2689 26.5804C79.2634 25.7401 78.7706 25.1708 78.037 25.1708ZM81.7166 26.586C81.7166 27.4037 82.2476 28.0012 83.091 28.0012C83.4853 28.0012 83.7481 27.9111 84.0328 27.6799L83.759 27.257C83.5455 27.4149 83.321 27.4994 83.0746 27.4994C82.6201 27.4938 82.264 27.1272 82.264 26.586C82.264 26.0448 82.6201 25.6782 83.0746 25.6726C83.321 25.6726 83.5455 25.757 83.759 25.915L84.0328 25.4921C83.7481 25.2609 83.4853 25.1708 83.091 25.1708C82.2476 25.1708 81.7166 25.7686 81.7166 26.586ZM73.7768 25.4527C73.5031 25.2665 73.1251 25.1708 72.7089 25.1708C72.0466 25.1708 71.6414 25.4921 71.6414 26.0279C71.6414 26.4674 71.937 26.7327 72.523 26.8172L72.7913 26.8566C73.1033 26.9016 73.2731 27.0145 73.2731 27.1666C73.2731 27.3752 73.0431 27.5107 72.6542 27.5107C72.2435 27.5107 71.9753 27.3809 71.7838 27.2288L71.5153 27.6517C71.9042 27.9449 72.3696 28.0012 72.6488 28.0012C73.4046 28.0012 73.8205 27.6405 73.8205 27.1272C73.8205 26.6536 73.5031 26.4111 72.928 26.3267L72.6597 26.2872C72.4133 26.2534 72.1943 26.1743 72.1943 25.9941C72.1943 25.7967 72.4024 25.6613 72.7144 25.6613C73.0486 25.6613 73.3715 25.7911 73.5304 25.8925L73.7768 25.4527ZM81.1196 25.1708C80.7912 25.1708 80.5558 25.3288 80.4078 25.5656V25.2384H79.8877V27.9336H80.4133V26.4168C80.4133 25.9713 80.6214 25.6838 80.9938 25.6838C81.1087 25.6838 81.2293 25.7007 81.3496 25.7514L81.5249 25.244C81.3991 25.1933 81.2348 25.1708 81.1196 25.1708ZM76.2628 25.2384H75.3101V24.421H74.779V25.2384H74.2258V25.7289H74.779V27.0033C74.779 27.6289 74.9926 28.0012 75.6658 28.0012C75.9122 28.0012 76.1971 27.9223 76.3779 27.7925L76.2136 27.3133C76.0437 27.4149 75.8575 27.4656 75.7098 27.4656C75.4249 27.4656 75.3101 27.2851 75.3101 27.0145V25.7289H76.2628V25.2384ZM67.7318 27.9336V26.2363C67.7318 25.5994 67.3593 25.1764 66.7241 25.1708C66.3902 25.1652 66.0451 25.2722 65.8042 25.65C65.6234 25.3513 65.3387 25.1708 64.939 25.1708C64.6598 25.1708 64.3642 25.2496 64.1506 25.5656V25.2384H63.625V27.9336H64.1561V26.3886C64.1561 25.9206 64.4298 25.6726 64.8186 25.6726C65.1963 25.6726 65.4098 25.9263 65.4098 26.383V27.9336H65.9412V26.3886C65.9412 25.9206 66.2258 25.6726 66.6038 25.6726C66.9926 25.6726 67.2004 25.9263 67.2004 26.383V27.9336H67.7318Z" fill="white"/>
</g>
<mask id="mask1" mask-type="alpha" maskUnits="userSpaceOnUse" x="61" y="2" width="33" height="27">
<path fill-rule="evenodd" clip-rule="evenodd" d="M61.9761 28.0776H93.831V2.56226H61.9761V28.0776Z" fill="white"/>
</mask>
<g mask="url(#mask1)">
<path fill-rule="evenodd" clip-rule="evenodd" d="M73.1655 20.6685H82.6422V4.72974H73.1655V20.6685Z" fill="#FF5F00"/>
<path fill-rule="evenodd" clip-rule="evenodd" d="M74.1435 12.6989C74.1435 9.46531 75.6139 6.58566 77.9035 4.72953C76.2289 3.37206 74.1162 2.56226 71.8197 2.56226C66.3831 2.56226 61.9761 7.10066 61.9761 12.6989C61.9761 18.2971 66.3831 22.8355 71.8197 22.8355C74.1162 22.8355 76.2289 22.0257 77.9035 20.6683C75.6139 18.8121 74.1435 15.9325 74.1435 12.6989Z" fill="#EB001B"/>
<path fill-rule="evenodd" clip-rule="evenodd" d="M93.5237 19.0794V18.5867H93.4239L93.3091 18.9256L93.1945 18.5867H93.0947V19.0794H93.165V18.7077L93.2727 19.0283H93.3457L93.4532 18.7069V19.0794H93.5237ZM92.8918 19.0794V18.6706H93.0197V18.5874H92.6943V18.6706H92.822V19.0794H92.8918Z" fill="#F79E1B"/>
<path fill-rule="evenodd" clip-rule="evenodd" d="M93.8313 12.6989C93.8313 18.2971 89.424 22.8355 83.9877 22.8355C81.6912 22.8355 79.5782 22.0257 77.9038 20.6683C80.1935 18.8121 81.6638 15.9325 81.6638 12.6989C81.6638 9.46531 80.1935 6.58566 77.9038 4.72953C79.5782 3.37206 81.6912 2.56226 83.9877 2.56226C89.424 2.56226 93.8313 7.10066 93.8313 12.6989Z" fill="#F79E1B"/>
</g>
<rect x="1.125" y="1.125" width="45.2283" height="28.4978" rx="3.375" fill="white" stroke="#979797" stroke-width="2.25"/>
<path fill-rule="evenodd" clip-rule="evenodd" d="M31.9126 9.67463C31.3138 9.44842 30.3764 9.20435 29.2039 9.20435C26.2202 9.20435 24.1162 10.7164 24.0985 12.8848C24.0808 14.4861 25.5992 15.3806 26.7451 15.9148C27.9205 16.461 28.3183 16.8093 28.3124 17.2974C28.3035 18.0445 27.372 18.3853 26.5026 18.3853C25.2961 18.3853 24.6544 18.2157 23.6609 17.8004L23.272 17.6248L22.8477 20.1206C23.5514 20.4317 24.857 20.701 26.2128 20.7144C29.3887 20.7144 31.4498 19.2202 31.4735 16.9045C31.4838 15.638 30.681 14.6722 28.9378 13.8759C27.8806 13.3595 27.2345 13.0157 27.2389 12.4934C27.2389 12.0305 27.7889 11.5349 28.9703 11.5349C29.958 11.5186 30.6751 11.7359 31.231 11.9606L31.5016 12.0901L31.9126 9.67463Z" fill="#16216A"/>
<path fill-rule="evenodd" clip-rule="evenodd" d="M39.6574 9.40967H37.3243C36.6013 9.40967 36.0601 9.60909 35.7437 10.3339L31.2563 20.5522H34.4293C34.4293 20.5522 34.9468 19.1785 35.0651 18.8779C35.4111 18.8779 38.4923 18.8823 38.9329 18.8823C39.0231 19.2723 39.3011 20.5522 39.3011 20.5522H42.1044L39.6574 9.40967ZM35.933 16.5979C36.1843 15.9535 37.1365 13.4785 37.1365 13.4785C37.1202 13.5098 37.3849 12.8341 37.5357 12.4144L37.7412 13.3758C37.7412 13.3758 38.3208 16.0383 38.4421 16.5979H35.933Z" fill="#16216A"/>
<path fill-rule="evenodd" clip-rule="evenodd" d="M15.4016 9.40674L12.4445 17.0102L12.1281 15.4654C11.5796 13.6854 9.86298 11.7537 7.94531 10.7878L10.6481 20.5388L13.8447 20.5358L18.6012 9.40674H15.4016Z" fill="#16216A"/>
<path fill-rule="evenodd" clip-rule="evenodd" d="M9.70077 9.40063H4.82749L4.79053 9.63131C8.58003 10.554 11.0891 12.7864 12.1285 15.4652L11.0699 10.3412C10.8866 9.63429 10.3572 9.42593 9.70077 9.40063Z" fill="#16216A"/>
<path fill-rule="evenodd" clip-rule="evenodd" d="M17.936 20.5476L19.8241 9.39917H22.8463L20.9537 20.5476H17.936Z" fill="#16216A"/>
</svg>
