<svg width="25" height="24" viewBox="0 0 25 24" fill="none" xmlns="http://www.w3.org/2000/svg">
<path fill-rule="evenodd" clip-rule="evenodd" d="M12.5498 11C14.762 11 16.5553 9.20914 16.5553 7C16.5553 4.79086 14.762 3 12.5498 3C10.3376 3 8.54421 4.79086 8.54421 7C8.54421 9.20914 10.3376 11 12.5498 11ZM12.5498 5C13.6559 5 14.5525 5.89543 14.5525 7C14.5525 8.10457 13.6559 9 12.5498 9C11.4437 9 10.547 8.10457 10.547 7C10.547 5.89543 11.4437 5 12.5498 5ZM5.54004 20C5.54004 16.134 8.6784 13 12.5498 13C16.4211 13 19.5595 16.134 19.5595 20C19.5595 20.5523 19.1111 21 18.5581 21C18.005 21 17.5567 20.5523 17.5567 20C17.5567 17.2386 15.315 15 12.5498 15C9.7845 15 7.54282 17.2386 7.54282 20C7.54282 20.5523 7.09448 21 6.54143 21C5.98838 21 5.54004 20.5523 5.54004 20Z" fill="#212121"/>
</svg>
